<mxfile host="app.diagrams.net" modified="2024-05-24T11:31:46.083Z" agent="Mozilla/5.0 (Windows NT 10.0; Win64; x64) AppleWebKit/537.36 (KHTML, like Gecko) Chrome/121.0.0.0 Safari/537.36" etag="OzcWLqVMw8pXTmpWBxfg" version="24.4.7" type="device">
  <diagram id="wFE0QG_FPsp0jaGvCLVb" name="Page-1">
    <mxGraphModel dx="1434" dy="782" grid="1" gridSize="10" guides="1" tooltips="1" connect="1" arrows="1" fold="1" page="1" pageScale="1" pageWidth="850" pageHeight="1100" math="0" shadow="0">
      <root>
        <mxCell id="0" />
        <mxCell id="1" parent="0" />
        <mxCell id="abEUUpB43oDejLpGENIq-1" value="" style="shape=ext;double=1;rounded=1;whiteSpace=wrap;html=1;fillColor=#FFFF33;movable=0;resizable=0;rotatable=0;deletable=0;editable=0;locked=1;connectable=0;" vertex="1" parent="1">
          <mxGeometry x="140" y="40" width="500" height="710" as="geometry" />
        </mxCell>
        <mxCell id="abEUUpB43oDejLpGENIq-4" value="UsuÃ¡rio:" style="text;strokeColor=none;fillColor=none;html=1;fontSize=24;fontStyle=1;verticalAlign=middle;align=center;" vertex="1" parent="1">
          <mxGeometry x="180" y="260" width="100" height="40" as="geometry" />
        </mxCell>
        <mxCell id="abEUUpB43oDejLpGENIq-5" value="" style="shape=ext;double=1;rounded=0;whiteSpace=wrap;html=1;" vertex="1" parent="1">
          <mxGeometry x="290" y="265" width="270" height="30" as="geometry" />
        </mxCell>
        <mxCell id="abEUUpB43oDejLpGENIq-6" value="Senha:" style="text;strokeColor=none;fillColor=none;html=1;fontSize=24;fontStyle=1;verticalAlign=middle;align=center;" vertex="1" parent="1">
          <mxGeometry x="180" y="320" width="100" height="40" as="geometry" />
        </mxCell>
        <mxCell id="abEUUpB43oDejLpGENIq-7" value="" style="shape=ext;double=1;rounded=0;whiteSpace=wrap;html=1;" vertex="1" parent="1">
          <mxGeometry x="290" y="325" width="270" height="30" as="geometry" />
        </mxCell>
        <UserObject label="Esqueceu a senha?" link="https://www.draw.io" id="abEUUpB43oDejLpGENIq-8">
          <mxCell style="text;html=1;strokeColor=none;fillColor=none;whiteSpace=wrap;align=center;verticalAlign=middle;fontColor=#0000EE;fontStyle=4;" vertex="1" parent="1">
            <mxGeometry x="170" y="390" width="150" height="40" as="geometry" />
          </mxCell>
        </UserObject>
        <mxCell id="abEUUpB43oDejLpGENIq-9" value="&lt;font color=&quot;#ffffff&quot;&gt;LOGIN&lt;/font&gt;" style="shape=ext;double=1;rounded=1;whiteSpace=wrap;html=1;fillColor=#0000FF;" vertex="1" parent="1">
          <mxGeometry x="280" y="570" width="180" height="50" as="geometry" />
        </mxCell>
        <mxCell id="abEUUpB43oDejLpGENIq-10" value="" style="sketch=0;aspect=fixed;pointerEvents=1;shadow=0;dashed=0;html=1;strokeColor=none;labelPosition=center;verticalLabelPosition=bottom;verticalAlign=top;align=center;fillColor=#00188D;shape=mxgraph.mscae.enterprise.lock" vertex="1" parent="1">
          <mxGeometry x="567.6" y="325" width="23.4" height="30" as="geometry" />
        </mxCell>
        <mxCell id="abEUUpB43oDejLpGENIq-11" value="" style="sketch=0;aspect=fixed;pointerEvents=1;shadow=0;dashed=0;html=1;strokeColor=none;labelPosition=center;verticalLabelPosition=bottom;verticalAlign=top;align=center;fillColor=#00188D;shape=mxgraph.azure.user" vertex="1" parent="1">
          <mxGeometry x="565.2" y="265" width="28.2" height="30" as="geometry" />
        </mxCell>
        <mxCell id="abEUUpB43oDejLpGENIq-13" value="&lt;font color=&quot;#0000ff&quot; style=&quot;font-size: 48px;&quot;&gt;&lt;b&gt;Tela de cadastro&lt;/b&gt;&lt;/font&gt;" style="text;html=1;align=center;verticalAlign=middle;whiteSpace=wrap;rounded=0;" vertex="1" parent="1">
          <mxGeometry x="140" y="70" width="510" height="110" as="geometry" />
        </mxCell>
      </root>
    </mxGraphModel>
  </diagram>
</mxfile>
